# Blender v2.82 (sub 7) OBJ File: ''
# www.blender.org
mtllib cornell2.mtl
o cornell
v 0.530000 0.600000 0.750000
v 0.700000 0.600000 0.170000
v 0.130000 0.600000 0.000000
v -0.050000 0.600000 0.570000
v -0.050000 -0.000000 0.570000
v -0.050000 0.600000 0.570000
v 0.130000 0.600000 0.000000
v 0.130000 0.000000 0.000000
v 0.530000 -0.000000 0.750000
v 0.530000 0.600000 0.750000
v -0.050000 0.600000 0.570000
v -0.050000 -0.000000 0.570000
v 0.700000 -0.000000 0.170000
v 0.700000 0.600000 0.170000
v 0.530000 0.600000 0.750000
v 0.530000 -0.000000 0.750000
v 0.130000 0.000000 0.000000
v 0.130000 0.600000 0.000000
v 0.700000 0.600000 0.170000
v 0.700000 -0.000000 0.170000
v -1.010000 -0.000000 0.990000
v -0.990000 0.000000 -1.040000
v -1.020000 1.990000 -1.040000
v -1.020000 1.990000 0.990000
v -0.240000 1.980000 0.160000
v -0.240000 1.980000 -0.220000
v 0.230000 1.980000 -0.220000
v 0.230000 1.980000 0.160000
v -0.530000 1.200000 0.090000
v 0.040000 1.200000 -0.090000
v -0.140000 1.200000 -0.670000
v -0.710000 1.200000 -0.490000
v -0.530000 -0.000000 0.090000
v -0.530000 1.200000 0.090000
v -0.710000 1.200000 -0.490000
v -0.710000 0.000000 -0.490000
v -0.710000 0.000000 -0.490000
v -0.710000 1.200000 -0.490000
v -0.140000 1.200000 -0.670000
v -0.140000 0.000000 -0.670000
v -0.140000 0.000000 -0.670000
v -0.140000 1.200000 -0.670000
v 0.040000 1.200000 -0.090000
v 0.040000 0.000000 -0.090000
v 0.040000 0.000000 -0.090000
v 0.040000 1.200000 -0.090000
v -0.530000 1.200000 0.090000
v -0.530000 -0.000000 0.090000
v -1.010000 -0.000000 0.990000
v 1.000000 -0.000000 0.990000
v 1.000000 0.000000 -1.040000
v -0.990000 0.000000 -1.040000
v -0.990000 0.000000 -1.040000
v 1.000000 0.000000 -1.040000
v 1.000000 1.990000 -1.040000
v -1.020000 1.990000 -1.040000
v -1.020000 1.990000 0.990000
v -1.020000 1.990000 -1.040000
v 1.000000 1.990000 -1.040000
v 1.000000 1.990000 0.990000
v 1.000000 0.000000 -1.040000
v 1.000000 -0.000000 0.990000
v 1.000000 1.990000 0.990000
v 1.000000 1.990000 -1.040000
vn 0.0000 1.0000 0.0000
vn -0.9536 0.0000 -0.3011
vn -0.2964 0.0000 0.9551
vn 0.9596 -0.0000 0.2813
vn 0.2858 0.0000 -0.9583
vn 0.9999 0.0100 0.0049
vn 0.0000 -1.0000 0.0000
vn -0.9551 0.0000 0.2964
vn -0.3011 0.0000 -0.9536
vn 0.9551 0.0000 -0.2964
vn 0.3011 -0.0000 0.9536
vn 0.0000 -0.0000 1.0000
vn -1.0000 0.0000 0.0000
usemtl shortBox.001
s 1
f 1//1 2//1 3//1 4//1
f 5//2 6//2 7//2 8//2
f 9//3 10//3 11//3 12//3
f 13//4 14//4 15//4 16//4
f 17//5 18//5 19//5 20//5
usemtl leftWall.001
f 21//6 22//6 23//6 24//6
usemtl light.001
f 25//7 26//7 27//7 28//7
usemtl tallBox.001
f 29//1 30//1 31//1 32//1
f 33//8 34//8 35//8 36//8
f 37//9 38//9 39//9 40//9
f 41//10 42//10 43//10 44//10
f 45//11 46//11 47//11 48//11
usemtl floor.001
f 49//1 50//1 51//1 52//1
usemtl backWall.001
f 53//12 54//12 55//12 56//12
usemtl ceiling.001
f 57//7 58//7 59//7 60//7
usemtl rightWall.001
f 61//13 62//13 63//13 64//13
o Manor
v 0.217588 0.616613 0.354459
v 0.217588 0.616613 0.548552
v 0.217588 0.785681 0.354459
v 0.217588 0.785681 0.548552
v 0.501352 0.616613 0.354459
v 0.501352 0.616613 0.548552
v 0.501352 0.785681 0.354459
v 0.501352 0.785681 0.548552
vn -1.0000 0.0000 0.0000
vn 1.0000 0.0000 0.0000
vn 0.0000 -1.0000 0.0000
vn 0.0000 1.0000 0.0000
vn 0.0000 0.0000 -1.0000
vn 0.0000 0.0000 1.0000
usemtl 05_-_Borders
s off
f 65//14 66//14 68//14 67//14
f 71//15 72//15 70//15 69//15
f 65//16 69//16 70//16 66//16
f 68//17 72//17 71//17 67//17
f 65//18 67//18 71//18 69//18
f 70//19 72//19 68//19 66//19
o Sphere.001
v -0.428508 1.227453 -0.233246
v -0.448187 1.281223 -0.324243
v -0.477244 1.253345 -0.263677
v -0.357283 1.226722 -0.304483
v -0.377436 1.220443 -0.271232
v -0.381657 1.253722 -0.353808
v -0.413945 1.238938 -0.290000
v -0.424720 1.222890 -0.173220
v -0.479015 1.248244 -0.171984
v -0.448068 1.281217 -0.096823
v -0.387713 1.217661 -0.165572
v -0.357131 1.227507 -0.116161
v -0.413891 1.239007 -0.130959
v -0.399110 1.253024 -0.078202
v -0.455500 1.369350 -0.329995
v -0.490169 1.384585 -0.269159
v -0.421270 1.407684 -0.297285
v -0.437525 1.420155 -0.258588
v -0.392963 1.381809 -0.366019
v -0.381436 1.420818 -0.310813
v -0.403991 1.420770 -0.281250
v -0.491884 1.385406 -0.158884
v -0.453774 1.369330 -0.089412
v -0.430181 1.429814 -0.175406
v -0.421145 1.407631 -0.123662
v -0.401487 1.385443 -0.063453
v -0.395847 1.429640 -0.149601
v -0.382404 1.420154 -0.107459
v -0.296078 1.223727 -0.302901
v -0.308028 1.206002 -0.255874
v -0.293966 1.248767 -0.355038
v -0.254834 1.238939 -0.289983
v -0.240221 1.227291 -0.233208
v -0.220738 1.281240 -0.324376
v -0.191183 1.252293 -0.261356
v -0.301780 1.199363 -0.184173
v -0.296947 1.223112 -0.119577
v -0.254921 1.239008 -0.130943
v -0.289921 1.243932 -0.071884
v -0.244635 1.223157 -0.171997
v -0.189942 1.248768 -0.170162
v -0.220551 1.281204 -0.097055
v -0.283727 1.386347 -0.368367
v -0.300174 1.429472 -0.307580
v -0.273228 1.429610 -0.271989
v -0.213792 1.369337 -0.330493
v -0.178805 1.383707 -0.269775
v -0.247514 1.407685 -0.297277
v -0.233559 1.420430 -0.260517
v -0.276699 1.387622 -0.057209
v -0.277658 1.435192 -0.153665
v -0.296768 1.429954 -0.114268
v -0.176616 1.386347 -0.159916
v -0.215806 1.368661 -0.087266
v -0.237404 1.429472 -0.176363
v -0.247655 1.407632 -0.123655
vn -0.2815 -0.8949 -0.3463
vn -0.4498 -0.7531 -0.4802
vn -0.3199 -0.9093 -0.2661
vn -0.2695 -0.9044 0.3309
vn -0.4816 -0.7528 0.4487
vn -0.3156 -0.8568 0.4077
vn -0.4423 0.7796 -0.4433
vn -0.3366 0.8740 -0.3505
vn -0.4203 0.7785 -0.4662
vn -0.4569 0.7817 0.4244
vn -0.3597 0.8547 0.3744
vn -0.4471 0.7820 0.4342
vn 0.4130 -0.8561 -0.3106
vn 0.4571 -0.7531 -0.4732
vn 0.3433 -0.8988 -0.2727
vn 0.4073 -0.8628 0.2994
vn 0.4796 -0.7528 0.4509
vn 0.3250 -0.8520 0.4104
vn 0.4480 0.7776 -0.4412
vn 0.3721 0.8545 -0.3625
vn 0.4257 0.7838 -0.4521
vn 0.4521 0.7840 0.4255
vn 0.3971 0.8385 0.3731
vn 0.4485 0.7826 0.4317
vn -0.0851 -0.9448 -0.3165
vn -0.0466 -0.8929 -0.4478
vn -0.1002 -0.9455 0.3097
vn -0.0786 -0.8899 0.4494
vn -0.0825 0.9966 0.0042
vn -0.0537 0.8139 -0.5786
vn -0.0648 0.9828 0.1730
vn -0.0436 0.7943 0.6059
vn -0.8760 -0.1049 -0.4708
vn -0.4606 -0.1128 -0.8804
vn 0.8761 -0.1082 -0.4697
vn 0.4388 -0.1103 -0.8918
vn -0.8914 -0.1135 0.4388
vn -0.4113 -0.1060 0.9053
vn 0.8920 -0.1107 0.4383
vn 0.4023 -0.1272 0.9066
vn -0.4330 -0.8999 -0.0516
vn -0.1543 -0.9868 -0.0498
vn -0.5739 0.8185 -0.0276
vn -0.0025 0.9963 -0.0858
vn 0.4308 -0.9017 -0.0363
vn 0.3580 -0.9302 -0.0803
vn 0.5698 0.8206 -0.0445
vn 0.1742 0.9826 -0.0639
vn -0.9953 -0.0951 -0.0192
vn 0.9953 -0.0950 -0.0174
vn -0.2070 -0.9767 -0.0566
vn -0.0564 0.9968 -0.0568
vn -0.0183 -0.0958 -0.9952
vn -0.0564 -0.1036 0.9930
usemtl orange
s off
f 76//20 77//20 79//20 78//20
f 74//21 78//21 79//21 75//21
f 73//22 75//22 79//22 77//22
f 83//23 84//23 86//23 85//23
f 81//24 85//24 86//24 82//24
f 83//25 85//25 81//25 80//25
f 87//26 88//26 90//26 89//26
f 90//27 93//27 92//27 89//27
f 87//28 89//28 92//28 91//28
f 94//29 95//29 97//29 96//29
f 97//30 100//30 99//30 96//30
f 98//31 100//31 97//31 95//31
f 103//32 104//32 102//32 101//32
f 103//33 106//33 107//33 104//33
f 102//34 104//34 107//34 105//34
f 110//35 111//35 109//35 108//35
f 110//36 113//36 114//36 111//36
f 112//37 113//37 110//37 108//37
f 120//38 121//38 119//38 118//38
f 117//39 121//39 120//39 116//39
f 115//40 116//40 120//40 118//40
f 127//41 128//41 126//41 125//41
f 124//42 128//42 127//42 123//42
f 126//43 128//43 124//43 122//43
f 76//44 101//44 102//44 77//44
f 76//45 78//45 103//45 101//45
f 83//46 108//46 109//46 84//46
f 109//47 111//47 86//47 84//47
f 93//48 117//48 116//48 92//48
f 91//49 92//49 116//49 115//49
f 100//50 124//50 123//50 99//50
f 122//51 124//51 100//51 98//51
f 74//52 75//52 88//52 87//52
f 74//53 87//53 91//53 78//53
f 118//54 119//54 107//54 106//54
f 103//55 115//55 118//55 106//55
f 81//56 82//56 95//56 94//56
f 86//57 98//57 95//57 82//57
f 125//58 126//58 114//58 113//58
f 114//59 126//59 122//59 111//59
f 73//60 80//60 81//60 75//60
f 73//61 77//61 83//61 80//61
f 88//62 94//62 96//62 90//62
f 96//63 99//63 93//63 90//63
f 107//64 113//64 112//64 105//64
f 102//65 105//65 112//65 108//65
f 121//66 127//66 125//66 119//66
f 123//67 127//67 121//67 117//67
f 75//68 81//68 94//68 88//68
f 119//69 125//69 113//69 107//69
f 77//70 102//70 108//70 83//70
f 99//71 123//71 117//71 93//71
f 78//72 91//72 115//72 103//72
f 111//73 122//73 98//73 86//73
o Sphere
v -0.346045 1.445615 -0.222508
v -0.346407 1.446555 -0.199187
v -0.346072 1.492151 -0.222165
v -0.346072 1.493243 -0.199014
v -0.323087 1.446554 -0.222500
v -0.322783 1.447496 -0.198734
v -0.322913 1.526612 -0.222165
v -0.322913 1.527706 -0.198999
vn -1.0000 0.0034 -0.0079
vn 1.0000 -0.0003 -0.0065
vn 0.0399 -0.9984 0.0399
vn -0.8297 0.5576 -0.0263
vn -0.0039 0.0054 -1.0000
vn -0.0106 0.0007 0.9999
usemtl orange
s off
f 129//74 130//74 132//74 131//74
f 135//75 136//75 134//75 133//75
f 129//76 133//76 134//76 130//76
f 132//77 136//77 135//77 131//77
f 129//78 131//78 135//78 133//78
f 134//79 136//79 132//79 130//79
