# Blender v2.82 (sub 7) OBJ File: ''
# www.blender.org
mtllib tombe3.mtl
o 13194_headstone_obelisk_NEW
v 3.638450 0.269740 0.033100
v 3.686134 0.317451 0.624994
v 3.638450 1.398041 0.033100
v 3.681633 1.398041 0.569129
v 4.766566 0.269740 0.033100
v 4.766566 0.312946 0.569128
v 4.766566 1.398041 0.033100
v 3.758050 0.389373 1.517366
v 4.103395 0.734699 2.005674
v 3.758045 1.398041 1.517350
v 4.103398 1.398041 2.005683
v 4.766566 0.389379 1.517384
v 4.766566 0.734696 2.005666
v 4.222942 0.854323 3.159379
v 4.334705 0.967049 3.314777
v 4.223469 1.396098 3.164022
v 4.438236 1.079668 3.465139
v 4.764242 0.854821 3.164513
v 4.451177 1.068051 3.463048
v 4.451452 1.083128 3.480831
v 4.382463 1.013921 4.779583
v 4.111697 0.744318 5.164964
v 4.472141 1.114213 4.644108
v 4.103529 0.760335 5.164906
v 4.485067 1.101987 4.645484
v 4.125292 0.734757 5.164988
v 4.568473 1.200087 4.510000
v 4.381369 1.012698 5.548663
v 4.471322 1.113497 5.684703
v 4.484267 1.101170 5.683252
v 4.563890 1.195540 5.813467
v 4.612362 1.243663 6.723493
v 4.652889 1.284201 7.487086
v 4.693419 1.324730 8.250681
v 4.733949 1.365261 9.014279
v 4.774493 1.405792 9.777872
v 4.817945 1.449243 10.596708
v 5.145456 1.776786 11.059779
v 3.638450 2.163782 0.033100
v 3.681633 2.163782 0.569129
v 3.638450 3.291908 0.033100
v 3.686133 3.244190 0.624979
v 4.766566 2.163782 0.033100
v 4.766566 3.291908 0.033100
v 4.766566 3.248692 0.569128
v 3.758045 2.163782 1.517350
v 4.103398 2.163782 2.005683
v 3.758035 3.172288 1.517320
v 4.103408 2.826942 2.005715
v 4.766566 3.172298 1.517289
v 4.766566 2.826931 2.005746
v 4.223477 2.165786 3.164115
v 4.438677 2.482743 3.465790
v 4.222999 2.707340 3.159521
v 4.334536 2.594657 3.315034
v 4.451446 2.478440 3.481185
v 4.764523 2.706852 3.164186
v 4.451116 2.493606 3.463025
v 4.472507 2.448230 4.643532
v 4.103528 2.804290 5.164879
v 4.382284 2.548089 4.779367
v 4.111735 2.818438 5.164908
v 4.568424 2.361573 4.509752
v 4.485196 2.459669 4.645430
v 4.125229 2.826801 5.165000
v 4.471668 2.448984 5.685261
v 4.381150 2.549267 5.548879
v 4.563866 2.366046 5.813747
v 4.612362 2.317976 6.723487
v 4.484188 2.460510 5.683192
v 4.652889 2.277448 7.487080
v 4.693418 2.236918 8.250676
v 4.733948 2.196387 9.014275
v 4.774493 2.155855 9.777867
v 4.817935 2.112396 10.596676
v 5.145456 1.784880 11.059779
v 5.532307 0.269740 0.033100
v 5.532307 0.312946 0.569128
v 5.532307 1.398041 0.033100
v 6.660596 0.269740 0.033100
v 6.612881 0.317452 0.625014
v 6.660595 1.398041 0.033100
v 6.617386 1.398041 0.569127
v 5.532307 0.389379 1.517384
v 5.532307 0.734696 2.005666
v 6.540985 0.389371 1.517358
v 6.195641 0.734696 2.005665
v 6.540992 1.398041 1.517335
v 6.195641 1.398041 2.005666
v 5.534597 0.854812 3.164432
v 5.846415 1.067282 3.461959
v 5.847672 1.083190 3.480650
v 6.076079 0.854271 3.159203
v 5.964414 0.967253 3.314635
v 6.075534 1.395822 3.164335
v 5.860770 1.079700 3.465172
v 5.812608 1.101261 4.646509
v 6.170310 0.734757 5.164976
v 5.730638 1.200185 4.510045
v 5.916165 1.014169 4.779769
v 6.186107 0.744449 5.164990
v 5.826921 1.114403 4.644092
v 6.195501 0.760464 5.165041
v 5.813377 1.100460 5.682249
v 5.735198 1.195575 5.813272
v 5.686673 1.243664 6.723500
v 5.917305 1.012994 5.548479
v 5.827707 1.113542 5.684609
v 5.646134 1.284202 7.487092
v 5.605606 1.324730 8.250685
v 5.565076 1.365261 9.014281
v 5.524544 1.405792 9.777877
v 5.481079 1.449256 10.596749
v 5.153549 1.776785 11.059779
v 5.532307 2.163782 0.033100
v 5.532307 3.291908 0.033100
v 5.532307 3.248692 0.569128
v 6.660595 2.163782 0.033100
v 6.617386 2.163782 0.569128
v 6.660596 3.291908 0.033100
v 6.612882 3.244188 0.624999
v 5.532307 3.172298 1.517289
v 5.532307 2.826931 2.005746
v 6.540992 2.163782 1.517335
v 6.195641 2.163782 2.005666
v 6.540999 3.172291 1.517313
v 6.195628 2.826945 2.005702
v 5.847178 2.478911 3.480853
v 5.534355 2.706856 3.164148
v 5.850819 2.492018 3.465267
v 6.075526 2.166031 3.164407
v 5.862484 2.478829 3.462779
v 6.076036 2.707373 3.159353
v 5.963262 2.595689 3.314784
v 5.730237 2.361901 4.509889
v 5.816207 2.458166 4.643983
v 6.170468 2.826802 5.165012
v 5.828542 2.444880 4.645677
v 6.195500 2.804256 5.165037
v 5.916394 2.547845 4.779595
v 6.186099 2.818360 5.164981
v 5.734798 2.366448 5.813419
v 5.686674 2.317975 6.723493
v 5.817055 2.458947 5.684727
v 5.829337 2.445797 5.683009
v 5.917599 2.548959 5.548653
v 5.646135 2.277447 7.487086
v 5.605606 2.236918 8.250681
v 5.565076 2.196387 9.014277
v 5.524545 2.155855 9.777873
v 5.481091 2.112385 10.596712
v 5.153549 1.784880 11.059779
vn -0.9968 -0.0000 0.0803
vn -0.0000 -0.9968 0.0803
vn 0.0000 0.0000 -1.0000
vn -0.8165 0.0000 0.5774
vn -0.0000 -0.8165 0.5774
vn -0.8149 -0.0077 0.5795
vn -0.0097 -0.8143 0.5804
vn -0.4121 -0.5849 0.6986
vn -0.6149 -0.3765 -0.6929
vn -0.4089 -0.5874 -0.6984
vn -0.4525 -0.5567 -0.6967
vn -0.9947 0.0000 0.1031
vn -0.0000 -0.9947 0.1031
vn -0.4524 -0.5570 0.6965
vn 0.0000 0.9968 0.0804
vn 0.0000 0.8165 0.5773
vn -0.0000 0.9968 0.0803
vn -0.8151 0.0072 0.5793
vn -0.0089 0.8144 0.5802
vn -0.3794 0.6113 0.6945
vn -0.5918 0.4049 -0.6970
vn -0.3763 0.6135 -0.6943
vn -0.4217 0.5830 -0.6945
vn 0.0000 0.9947 0.1031
vn -0.4219 0.5830 0.6943
vn 0.9968 0.0000 0.0804
vn 0.8165 0.0000 0.5774
vn 0.9968 -0.0000 0.0803
vn 0.8150 -0.0081 0.5795
vn 0.0101 -0.8142 0.5805
vn 0.3763 -0.6143 0.6936
vn 0.5917 -0.4061 -0.6964
vn 0.3765 -0.6140 -0.6937
vn 0.4206 -0.5855 -0.6931
vn 0.9947 0.0000 0.1031
vn 0.4205 -0.5856 0.6930
vn 0.8143 0.0096 0.5804
vn 0.0077 0.8150 0.5794
vn 0.5974 0.3970 0.6968
vn 0.5989 0.3951 -0.6966
vn 0.3875 0.6064 -0.6943
vn 0.5687 0.4393 -0.6954
vn 0.5682 0.4398 0.6955
vn 0.0000 -0.8138 0.5812
vn 0.0001 -0.7621 0.6474
vn -0.0000 -0.8166 -0.5772
vn 0.0000 -0.8098 -0.5867
vn 0.0001 -0.9936 0.1129
vn 0.0000 -0.9986 0.0528
vn 0.0001 -0.8095 0.5871
vn 0.0000 -0.9986 0.0530
vn -0.0000 -0.8164 0.5775
vn 0.0000 0.8140 0.5808
vn -0.0001 0.7665 0.6422
vn 0.0001 0.8165 -0.5773
vn 0.0001 0.8114 -0.5846
vn -0.0003 0.9936 0.1129
vn -0.0002 0.9986 0.0530
vn 0.0001 0.8111 0.5849
vn 0.0000 0.9986 0.0530
vn -0.0000 0.8164 0.5774
vn -0.8141 -0.0000 0.5807
vn -0.7673 -0.0001 0.6413
vn -0.8162 -0.0000 -0.5777
vn -0.8124 -0.0001 -0.5830
vn -0.9936 -0.0000 0.1130
vn 0.8139 -0.0000 0.5811
vn 0.7632 0.0002 0.6461
vn 0.8165 -0.0001 -0.5773
vn 0.8111 -0.0001 -0.5849
vn 0.9936 0.0003 0.1129
vn -0.9986 -0.0000 0.0532
vn -0.8122 -0.0001 0.5834
vn -0.9986 -0.0000 0.0530
vn -0.8164 0.0000 0.5774
vn 0.9986 0.0002 0.0530
vn 0.8108 -0.0001 0.5854
vn 0.9986 -0.0000 0.0530
vn 0.8164 0.0000 0.5775
vn -0.6162 -0.3749 0.6927
vn -0.4097 -0.5868 0.6985
vn -0.5928 0.4039 0.6968
vn -0.3803 0.6104 0.6948
vn 0.5898 -0.4082 0.6968
vn 0.3759 -0.6143 0.6937
vn 0.5970 0.3973 0.6969
vn 0.3888 0.6052 0.6946
vn -0.8163 -0.0000 0.5776
vn 0.8164 -0.0001 0.5775
vn 0.0000 -0.8165 0.5773
vn 0.0001 0.8164 0.5775
vn 0.0000 0.0000 1.0000
usemtl _13194_headstone_obelisk_v2default
s off
f 1//1 2//1 4//1 3//1
f 1//2 5//2 6//2 2//2
f 1//3 3//3 7//3 5//3
f 8//4 9//4 11//4 10//4
f 8//5 12//5 13//5 9//5
f 2//1 8//1 10//1 4//1
f 2//2 6//2 12//2 8//2
f 14//6 15//6 17//6 16//6
f 14//7 18//7 19//7 15//7
f 19//8 20//8 17//8 15//8
f 21//9 22//9 24//9 23//9
f 21//10 25//10 26//10 22//10
f 21//11 23//11 27//11 25//11
f 9//12 14//12 16//12 11//12
f 9//13 13//13 18//13 14//13
f 30//14 31//14 29//14 28//14
f 39//1 40//1 42//1 41//1
f 42//15 45//15 44//15 41//15
f 39//3 41//3 44//3 43//3
f 46//4 47//4 49//4 48//4
f 49//16 51//16 50//16 48//16
f 40//1 46//1 48//1 42//1
f 48//17 50//17 45//17 42//17
f 52//18 53//18 55//18 54//18
f 55//19 58//19 57//19 54//19
f 56//20 58//20 55//20 53//20
f 59//21 60//21 62//21 61//21
f 62//22 65//22 64//22 61//22
f 59//23 61//23 64//23 63//23
f 47//12 52//12 54//12 49//12
f 54//24 57//24 51//24 49//24
f 68//25 70//25 67//25 66//25
f 82//26 83//26 81//26 80//26
f 77//2 80//2 81//2 78//2
f 77//3 79//3 82//3 80//3
f 88//27 89//27 87//27 86//27
f 84//5 86//5 87//5 85//5
f 83//28 88//28 86//28 81//28
f 78//2 81//2 86//2 84//2
f 95//29 96//29 94//29 93//29
f 90//30 93//30 94//30 91//30
f 94//31 96//31 92//31 91//31
f 102//32 103//32 101//32 100//32
f 97//33 100//33 101//33 98//33
f 97//34 99//34 102//34 100//34
f 89//35 95//35 93//35 87//35
f 85//13 87//13 93//13 90//13
f 107//36 108//36 105//36 104//36
f 120//26 121//26 119//26 118//26
f 117//15 121//15 120//15 116//15
f 115//3 116//3 120//3 118//3
f 126//27 127//27 125//27 124//27
f 123//16 127//16 126//16 122//16
f 121//28 126//28 124//28 119//28
f 122//17 126//17 121//17 117//17
f 133//37 134//37 132//37 131//37
f 130//38 134//38 133//38 129//38
f 132//39 134//39 130//39 128//39
f 140//40 141//40 139//40 138//40
f 137//41 141//41 140//41 136//41
f 135//42 136//42 140//42 138//42
f 127//35 133//35 131//35 125//35
f 129//24 133//24 127//24 123//24
f 145//43 146//43 144//43 142//43
f 5//2 77//2 78//2 6//2
f 5//3 7//3 79//3 77//3
f 12//5 84//5 85//5 13//5
f 6//2 78//2 84//2 12//2
f 18//44 90//44 91//44 19//44
f 91//45 92//45 20//45 19//45
f 25//46 97//46 98//46 26//46
f 25//47 27//47 99//47 97//47
f 20//48 92//48 99//48 27//48
f 13//13 85//13 90//13 18//13
f 31//49 105//49 106//49 32//49
f 104//50 105//50 31//50 30//50
f 33//51 109//51 110//51 34//51
f 32//51 106//51 109//51 33//51
f 35//51 111//51 112//51 36//51
f 37//52 113//52 114//52 38//52
f 36//51 112//51 113//51 37//51
f 34//51 110//51 111//51 35//51
f 45//15 117//15 116//15 44//15
f 43//3 44//3 116//3 115//3
f 51//16 123//16 122//16 50//16
f 50//17 122//17 117//17 45//17
f 58//53 130//53 129//53 57//53
f 128//54 130//54 58//54 56//54
f 65//55 137//55 136//55 64//55
f 63//56 64//56 136//56 135//56
f 63//57 135//57 128//57 56//57
f 57//24 129//24 123//24 51//24
f 69//58 143//58 142//58 68//58
f 142//59 144//59 70//59 68//59
f 72//60 148//60 147//60 71//60
f 71//60 147//60 143//60 69//60
f 74//60 150//60 149//60 73//60
f 76//61 152//61 151//61 75//61
f 75//60 151//60 150//60 74//60
f 73//60 149//60 148//60 72//60
f 3//1 4//1 40//1 39//1
f 3//3 39//3 43//3 7//3
f 10//4 11//4 47//4 46//4
f 4//1 10//1 46//1 40//1
f 16//62 17//62 53//62 52//62
f 20//63 56//63 53//63 17//63
f 23//64 24//64 60//64 59//64
f 23//65 59//65 63//65 27//65
f 20//66 27//66 63//66 56//66
f 11//12 16//12 52//12 47//12
f 118//26 119//26 83//26 82//26
f 79//3 115//3 118//3 82//3
f 124//27 125//27 89//27 88//27
f 119//28 124//28 88//28 83//28
f 131//67 132//67 96//67 95//67
f 96//68 132//68 128//68 92//68
f 138//69 139//69 103//69 102//69
f 99//70 135//70 138//70 102//70
f 128//71 135//71 99//71 92//71
f 125//35 131//35 95//35 89//35
f 31//72 32//72 69//72 68//72
f 31//73 68//73 66//73 29//73
f 33//74 34//74 72//74 71//74
f 32//74 33//74 71//74 69//74
f 35//74 36//74 74//74 73//74
f 37//75 38//75 76//75 75//75
f 36//74 37//74 75//74 74//74
f 34//74 35//74 73//74 72//74
f 142//76 143//76 106//76 105//76
f 108//77 145//77 142//77 105//77
f 147//78 148//78 110//78 109//78
f 143//78 147//78 109//78 106//78
f 149//78 150//78 112//78 111//78
f 151//79 152//79 114//79 113//79
f 150//78 151//78 113//78 112//78
f 148//78 149//78 111//78 110//78
f 22//80 28//80 29//80 24//80
f 22//81 26//81 30//81 28//81
f 60//82 66//82 67//82 62//82
f 67//83 70//83 65//83 62//83
f 103//84 108//84 107//84 101//84
f 98//85 101//85 107//85 104//85
f 141//86 146//86 145//86 139//86
f 144//87 146//87 141//87 137//87
f 24//88 29//88 66//88 60//88
f 139//89 145//89 108//89 103//89
f 26//90 98//90 104//90 30//90
f 70//91 144//91 137//91 65//91
f 7//3 43//3 115//3 79//3
f 114//92 152//92 76//92 38//92
